<svg width="40" height="40" viewBox="0 0 40 40" fill="none" xmlns="http://www.w3.org/2000/svg">
<path d="M20 40C31.0457 40 40 31.0457 40 20C40 8.95431 31.0457 0 20 0C8.95431 0 0 8.95431 0 20C0 31.0457 8.95431 40 20 40Z" fill="#FF0000"/>
<path d="M26.5447 12.4766H13.4552C12.9321 12.4766 12.4142 12.5796 11.9309 12.7799C11.4477 12.9802 11.0086 13.2737 10.6389 13.6437C10.2691 14.0137 9.9759 14.4529 9.77596 14.9363C9.57602 15.4197 9.47329 15.9377 9.47363 16.4608V23.5397C9.47329 24.0628 9.57602 24.5808 9.77596 25.0642C9.9759 25.5476 10.2691 25.9868 10.6389 26.3568C11.0086 26.7268 11.4477 27.0203 11.9309 27.2206C12.4142 27.4209 12.9321 27.5239 13.4552 27.5239H26.5447C27.0678 27.5239 27.5857 27.4209 28.069 27.2206C28.5522 27.0203 28.9913 26.7268 29.361 26.3568C29.7308 25.9868 30.024 25.5476 30.2239 25.0642C30.4239 24.5808 30.5266 24.0628 30.5263 23.5397V16.4608C30.5266 15.9377 30.4239 15.4197 30.2239 14.9363C30.024 14.4529 29.7308 14.0137 29.361 13.6437C28.9913 13.2737 28.5522 12.9802 28.069 12.7799C27.5857 12.5796 27.0678 12.4766 26.5447 12.4766ZM17.2263 23.2266V16.7739L22.7736 20.0002L17.2263 23.2266Z" fill="white"/>
</svg>
